<svg width="672" height="567" viewBox="0 0 672 567" fill="none" xmlns="http://www.w3.org/2000/svg">
<g clip-path="url(#clip0)">
<path opacity="0.1" d="M235.727 556.018C300.466 556.018 352.947 545.297 352.947 532.073C352.947 518.848 300.466 508.127 235.727 508.127C170.987 508.127 118.506 518.848 118.506 532.073C118.506 545.297 170.987 556.018 235.727 556.018Z" fill="#BEBEC3"/>
<path opacity="0.1" d="M390.437 79.9605C347.357 78.3527 306.326 63.351 267.146 46.9424C227.966 30.5339 189.158 12.3596 147.109 3.66717C120.064 -1.92437 89.131 -2.72112 67.3443 12.8979C46.3697 27.9714 39.5934 53.9193 35.9523 78.0154C33.2098 96.1466 31.5989 115.233 39.1075 132.208C44.3261 143.994 53.5787 153.9 59.9822 165.19C82.2615 204.468 66.5123 252.904 42.3758 291.255C31.0598 309.243 17.9132 326.426 9.17319 345.555C0.43321 364.684 -3.60728 386.677 4.04103 406.244C11.6161 425.624 29.6752 440.152 49.2386 450.381C88.9713 471.161 135.773 477.104 181.443 480.477C282.509 487.928 384.107 484.705 485.439 481.468C522.942 480.276 560.604 479.063 597.494 472.811C617.983 469.337 639.131 463.825 654.008 450.517C672.886 433.628 677.565 405.031 664.911 383.856C643.69 348.326 585.033 339.504 570.183 301.383C562.022 280.395 570.402 257.024 582.271 237.565C607.725 195.811 650.387 159.183 652.63 111.464C654.174 78.6901 633.666 45.8658 601.954 30.3544C568.718 14.0966 522.622 16.1423 498.113 43.052C472.851 70.7298 428.479 81.3889 390.437 79.9605Z" fill="#BEBEC3"/>
<path d="M356.202 259.652L335.814 244.829L346.098 228.32L292.247 223.691L272.896 239.826L248.673 225.184L228.471 227.803L228.231 222.061C227.981 216.075 227.423 210.108 226.561 204.188C226.647 202.394 226.707 200.334 226.7 198.094C226.7 188.655 225.515 176.144 220.31 167.804L221.508 156.19L211.79 143.808C213.35 140.456 215.13 137.227 217.115 134.147C217.448 133.63 217.781 133.128 218.14 132.64C230.754 131.656 240.706 120.473 240.706 106.799C240.706 106.168 240.706 105.536 240.639 104.911C240.639 104.66 240.592 104.402 240.566 104.151C241.797 104.868 243.042 105.586 244.287 106.304C244.52 106.663 244.786 107.022 245.079 107.445L245.139 107.524L245.512 108.019L245.631 108.17C245.765 108.342 245.904 108.508 246.044 108.68L246.137 108.795C246.49 109.218 246.863 109.649 247.262 110.072C247.31 110.114 247.354 110.16 247.395 110.209L247.895 110.711L248.034 110.848C248.46 111.257 248.913 111.651 249.366 112.025L249.512 112.14L250.085 112.563L250.271 112.692C250.491 112.836 250.717 112.987 250.937 113.123L251.017 113.173C251.276 113.324 251.542 113.467 251.809 113.604L251.942 113.661C252.168 113.767 252.39 113.867 252.607 113.963L252.814 114.042C253.047 114.128 253.273 114.207 253.513 114.279L253.659 114.322C253.952 114.401 254.245 114.465 254.544 114.515H254.578C254.86 114.565 255.144 114.596 255.43 114.609H255.623C255.878 114.623 256.133 114.623 256.388 114.609H256.555C256.874 114.589 257.192 114.548 257.507 114.487C258.996 114.276 260.426 113.722 261.7 112.865C262.025 112.631 262.312 112.342 262.552 112.01C263.884 110.13 262.419 108.07 262.419 108.07C261.9 106.735 258.532 105.794 258.532 105.794C258.532 105.794 247.881 101 247.881 97.1809C247.881 93.3623 245.219 73.5514 217.734 69.0222C217.734 69.0222 199.855 67.9384 194.829 78.2601L194.723 79.466C193.245 80.4637 192.02 82.4663 190.562 83.0549C189.932 83.2008 189.325 83.4425 188.758 83.7727V83.6363C188.59 83.795 188.452 83.9877 188.352 84.2034C188.039 84.8752 187.851 85.6069 187.8 86.3567C187.65 87.2727 187.355 88.1541 186.928 88.9623C186.809 89.1919 186.675 89.4126 186.528 89.6226L186.415 89.8165C187.188 89.8814 187.964 89.746 188.678 89.4217C188.566 90.4044 188.342 91.3686 188.013 92.2928C188.436 92.3076 188.854 92.1909 189.218 91.9568C189.581 91.7227 189.874 91.3809 190.063 90.9721V90.9147L190.15 90.7855C190.317 90.4532 190.455 90.1047 190.562 89.7447L190.489 89.8308C190.622 89.3642 190.742 88.8905 190.888 88.4311C190.955 88.1724 191.066 87.9291 191.215 87.7133C191.392 87.5202 191.609 87.3748 191.849 87.2887C192.088 87.2027 192.343 87.1785 192.592 87.2181L192.32 93.4413H192.439C192.279 93.8939 192.083 94.331 191.854 94.7476C190.908 96.3985 189.191 97.5255 188.559 99.3343C188.286 100.207 188.182 101.13 188.252 102.048C188.252 102.586 188.312 103.131 188.352 103.67V103.627C188.445 105.062 188.472 106.426 187.753 107.582C187.261 108.371 186.468 108.967 186.196 109.864C186.12 110.114 186.086 110.377 186.096 110.639C186.149 111.426 186.301 112.201 186.548 112.943C186.551 112.929 186.551 112.915 186.548 112.9C186.714 113.447 186.753 114.028 186.661 114.594C186.362 116.03 184.744 117.229 184.824 118.6C184.82 118.78 184.845 118.96 184.898 119.131C185.209 119.8 185.748 120.315 186.402 120.566C187.428 121.196 188.607 121.476 189.783 121.37C190.224 121.284 190.651 121.127 191.048 120.904C190.582 122.059 190.103 123.201 189.617 124.284C189.544 124.457 189.464 124.629 189.384 124.801C189.384 124.801 185.27 121.837 182.934 127.881C182.252 129.137 181.764 130.504 181.489 131.929C181.372 132.499 181.207 133.056 180.997 133.594C179.96 135.488 178.407 136.991 176.55 137.901C171.784 140.255 152.534 166.146 152.194 172.85C152.028 175.467 151.617 178.059 150.969 180.588C149.454 186.542 149.065 192.764 149.824 198.884C150.062 200.862 150.456 202.814 151.003 204.719C153.046 211.416 154.411 223.913 154.411 223.913L156.621 245.605C156.539 248.598 156.659 251.595 156.98 254.57C154.724 257.348 145.664 268.925 149.126 272.076C151.788 274.56 156.448 274.151 159.064 273.641C156.86 279.52 153.392 289.741 152.933 296.761C152.267 307.147 154.071 320.907 156.927 326.19C159.783 331.473 169.301 345.025 169.301 345.025C169.301 345.025 168.855 363.616 172.257 370.37C175.658 377.124 177.03 391.135 177.03 391.135C177.03 391.135 180.205 402.965 178.614 407.314C177.023 411.664 181.563 415.282 176.797 418.174C172.031 421.067 165.933 486.264 165.933 486.264C165.933 486.264 163.477 528.993 165.933 531.168C166.065 531.271 166.205 531.36 166.353 531.434V545.789C166.353 545.789 164.648 548.804 171.578 549.414C176.324 549.823 189.777 550.749 197.758 551.288L203.942 551.704C203.942 551.704 218.586 554.848 225.056 551.704C231.526 548.56 242.995 548.632 241.291 540.327C241.065 539.197 240.763 538.086 240.386 537.004C238.516 531.85 235.34 531.261 229.489 529.826C229.15 529.747 228.824 529.675 228.524 529.618C222.36 528.462 220.337 531.556 216.882 527.529C213.88 524.048 204.321 520.15 201.066 518.916C201.146 518.657 201.246 518.406 201.326 518.14C200.404 517.972 199.547 517.521 198.856 516.841L207.676 517.444L212.928 517.796C212.928 517.796 225.376 520.473 230.901 517.796C236.425 515.118 246.144 515.19 244.693 508.134C244.502 507.173 244.246 506.228 243.927 505.306C242.336 500.928 239.634 500.447 234.662 499.234C234.375 499.169 234.109 499.105 233.843 499.054C228.604 498.071 226.887 500.698 223.951 497.282C221.435 494.367 213.494 491.101 210.638 489.989C210.638 488.395 208.641 486.127 207.383 483.852C205.905 481.196 208.635 471.901 208.635 471.901L210.192 433.334C210.785 433.049 211.413 432.856 212.056 432.76C212.056 432.76 219.099 425.51 217.508 417.787C217.184 415.451 217.015 413.093 217.002 410.731C219.318 408.413 222.507 404.989 223.412 402.878C224.89 399.44 223.412 382.78 223.412 382.78V319.077L235.194 320.362L245.884 321.546L249.139 321.905L259.83 323.068L284.399 325.745L306.538 321.223L316.117 319.271L335.814 315.251V263.284L356.202 259.652ZM194.044 87.4478L192.672 87.2898C193.125 87.3114 193.604 87.4047 194.044 87.4478Z" fill="url(#paint0_linear)"/>
<path d="M308.415 293.395C301.759 303.666 277.829 298.225 277.829 298.225L259.284 279.513L256.788 276.979L260.975 267.389C260.975 267.389 262.306 267.784 264.589 268.488C276.577 272.242 314.034 284.76 308.415 293.395Z" fill="#EFB7B9"/>
<path opacity="0.1" d="M264.576 268.488C263.757 271.56 261.514 276.161 259.284 279.513L256.788 276.979L260.975 267.389C260.975 267.389 262.319 267.784 264.576 268.488Z" fill="black"/>
<path d="M200.973 160.346C200.973 160.346 183.879 168.522 184.718 188.598C185.321 201.532 186.628 214.417 188.632 227.186C188.632 227.186 185.137 257.398 199.688 265.186C214.239 272.974 227.705 279.376 227.705 279.376C227.705 279.376 250.471 282.018 253.3 283.109C256.129 284.2 264.969 267.519 263.338 264.92C261.707 262.322 240.812 256.874 238.149 252.538C235.487 248.203 229.33 245.526 229.33 245.526C229.33 245.526 222.973 241.377 222.54 237.63C222.107 233.883 223.785 231.091 224.211 229.447C224.637 227.803 225.715 211.933 225.715 211.933C225.715 211.933 232.891 155.444 200.973 160.346Z" fill="#DCE6F2"/>
<path opacity="0.1" d="M212.256 226.361C212.256 226.361 188.805 230.596 191.075 239.446C191.075 239.446 199.588 229.892 212.256 226.361Z" fill="black"/>
<path opacity="0.1" d="M212.435 229.942C212.435 229.942 199.542 241.291 202.065 241.872C204.587 242.453 212.435 229.942 212.435 229.942Z" fill="black"/>
<path opacity="0.1" d="M218.633 233.897C218.633 233.897 215.178 241.528 217.301 241.011C219.425 240.494 218.633 233.897 218.633 233.897Z" fill="black"/>
<path opacity="0.1" d="M265.441 269.299L264.017 268.861C264.423 267.425 264.536 266.262 264.203 265.724C262.572 263.126 241.691 257.685 239.035 253.342C236.379 249 230.215 246.329 230.215 246.329C230.215 246.329 223.858 242.181 223.425 238.434C222.993 234.687 224.67 231.895 225.096 230.251C225.522 228.607 226.6 212.73 226.6 212.73C226.6 212.73 233.756 156.247 201.838 161.15C201.838 161.15 184.744 169.333 185.576 189.409C186.18 202.344 187.489 215.229 189.497 227.997C189.497 227.997 186.002 258.209 200.554 265.997C215.105 273.785 228.571 280.187 228.571 280.187C228.571 280.187 251.329 282.822 254.165 283.92C255.237 284.336 257.174 282.19 259.071 279.24L260.149 280.324L278.694 299.029C278.694 299.029 302.624 304.477 309.281 294.206C314.906 285.564 277.456 273.045 265.441 269.299Z" fill="black"/>
<path d="M191.135 84.993C190.483 85.1303 189.859 85.3903 189.291 85.761C188.625 86.3567 188.625 87.376 188.459 88.2661C188.263 89.5042 187.808 90.6777 187.127 91.6971C187.885 91.757 188.645 91.6217 189.344 91.3023C189.23 92.2847 189.007 93.2487 188.678 94.1734C189.093 94.1848 189.502 94.0669 189.856 93.8339C190.211 93.601 190.495 93.2627 190.675 92.8599C191.028 92.051 191.306 91.2073 191.507 90.3405C191.57 90.0812 191.678 89.8374 191.827 89.6227C192.439 88.8403 193.578 89.192 194.523 89.2925C195.309 89.364 196.099 89.2074 196.811 88.8389C197.523 88.4703 198.13 87.9033 198.57 87.1965C199.575 85.5528 199.635 81.3466 197.239 80.9016C194.736 80.4566 193.178 84.1747 191.135 84.993Z" fill="#965D7B"/>
<g opacity="0.1">
<path opacity="0.1" d="M189.224 86.6438C189.284 86.2921 189.324 85.9261 189.397 85.5743C188.765 86.1701 188.732 87.1822 188.565 88.0794C188.481 88.5971 188.35 89.1044 188.173 89.5939C188.697 88.6931 189.054 87.6913 189.224 86.6438Z" fill="black"/>
<path opacity="0.1" d="M189.437 92.5727C189.769 91.6492 189.992 90.6847 190.103 89.7016C189.436 90.0041 188.715 90.1391 187.993 90.0964C187.783 90.6012 187.526 91.0821 187.227 91.532C187.982 91.5949 188.74 91.462 189.437 91.1443C189.327 92.1275 189.103 93.0919 188.772 94.0155C189.186 94.026 189.595 93.9077 189.949 93.6749C190.303 93.442 190.587 93.1043 190.769 92.7019C190.934 92.3757 191.068 92.0317 191.168 91.6755C190.973 91.9698 190.712 92.2064 190.409 92.3632C190.107 92.52 189.772 92.5921 189.437 92.5727Z" fill="black"/>
<path opacity="0.1" d="M195.282 87.6918C194.336 87.5913 193.192 87.2396 192.579 88.022C192.433 88.2385 192.325 88.4817 192.26 88.7398C192.2 88.9264 192.146 89.1202 192.1 89.314C192.732 88.7757 193.757 89.0628 194.616 89.1561C195.402 89.2253 196.192 89.0677 196.903 88.6994C197.614 88.331 198.222 87.7653 198.663 87.0602C198.865 86.7116 199.015 86.3315 199.109 85.9332C198.653 86.5416 198.066 87.0201 197.399 87.3267C196.731 87.6333 196.004 87.7587 195.282 87.6918Z" fill="black"/>
</g>
<path d="M211.171 144.275L221.322 157.439L219.997 170.725L207.729 150.017L211.171 144.275Z" fill="#DCE6F2"/>
<path opacity="0.1" d="M221.315 157.439L220.07 169.936L219.991 170.725L208.921 152.034L207.729 150.017L208.075 149.436L211.164 144.275L211.85 145.165L221.315 157.439Z" fill="black"/>
<path d="M226.587 126.452C223.152 127.515 219.871 131.161 217.015 135.59C215.085 138.645 213.359 141.845 211.85 145.165C210.911 147.189 210.086 149.134 209.4 150.828L208.921 152.034C207.763 154.984 207.117 156.958 207.117 156.958C207.117 156.958 180.824 135.64 184.984 134.204C186.382 133.723 188.219 130.493 190.036 126.423L190.263 125.907C191.414 123.294 192.546 120.38 193.551 117.638C195.608 112.003 197.132 107.108 197.132 107.108C197.132 107.108 237.071 123.222 226.587 126.452Z" fill="#EFB7B9"/>
<path d="M242.316 105.909C242.316 105.909 248.387 117.753 256.541 116.138C264.696 114.523 261.341 109.778 261.341 109.778L242.316 105.909Z" fill="#444053"/>
<path d="M230.554 515.872C225.176 518.521 213.015 515.872 213.015 515.872L207.889 515.528C201.233 515.068 190.09 514.293 186.149 513.948C180.398 513.439 181.809 510.898 181.809 510.898V495.544L209.713 487.922C209.713 487.922 220.743 491.991 223.765 495.544C226.634 498.932 228.311 496.327 233.43 497.303C233.683 497.353 233.949 497.411 234.229 497.482C239.088 498.681 241.724 499.155 243.282 503.498C243.595 504.41 243.846 505.345 244.034 506.297C245.472 513.288 235.926 513.238 230.554 515.872Z" fill="#A36468"/>
<path opacity="0.1" d="M243.282 503.498C242.282 504.171 241.231 504.752 240.14 505.235C236.479 507.036 232.997 509.233 229.296 510.934C225.595 512.635 221.608 513.848 217.601 513.525C215.504 513.36 213.361 512.807 211.357 513.453C210.118 513.969 208.951 514.667 207.889 515.528C201.233 515.068 190.09 514.293 186.149 513.949C180.398 513.439 181.809 510.898 181.809 510.898V509.103C182.015 509.103 182.248 509.039 182.514 509.017C183.892 508.994 185.264 509.214 186.575 509.671C189.464 510.518 192.339 511.35 195.228 512.183C195.466 511.216 195.884 510.311 196.456 509.524C197.028 508.737 197.743 508.083 198.557 507.603C200.206 506.659 202.056 506.201 203.922 506.275C208.402 506.34 212.642 508.63 217.115 508.859C218.366 508.983 219.625 508.756 220.769 508.199C221.382 507.869 221.921 507.388 222.52 507.022C223.479 506.522 224.492 506.153 225.535 505.924C228.469 505.136 231.349 504.134 234.156 502.923C234.954 502.586 235.886 501.976 235.78 501.057C235.64 499.837 233.863 499.693 233.397 498.574C233.315 498.372 233.277 498.152 233.286 497.932C233.295 497.711 233.351 497.496 233.45 497.303C233.703 497.353 233.969 497.411 234.249 497.482C239.088 498.681 241.724 499.155 243.282 503.498Z" fill="black"/>
<path d="M224.87 549.465C218.546 552.58 204.235 549.465 204.235 549.465L198.211 549.084C190.409 548.546 177.269 547.648 172.63 547.225C165.86 546.622 167.524 543.636 167.524 543.636V525.541L200.361 516.568C200.361 516.568 213.341 521.356 216.895 525.541C220.27 529.524 222.221 526.46 228.271 527.608C228.571 527.665 228.884 527.737 229.21 527.816C234.928 529.252 238.03 529.79 239.86 534.901C240.231 535.974 240.527 537.075 240.746 538.195C242.396 546.421 231.193 546.357 224.87 549.465Z" fill="#A36468"/>
<path opacity="0.1" d="M239.847 534.901C238.671 535.693 237.435 536.377 236.153 536.946C231.846 539.064 227.745 541.648 223.392 543.65C219.039 545.653 214.346 547.074 209.626 546.701C207.164 546.507 204.641 545.84 202.304 546.615C200.84 547.23 199.463 548.061 198.211 549.084C190.409 548.546 177.269 547.648 172.63 547.225C165.86 546.622 167.524 543.636 167.524 543.636V541.526C167.8 541.477 168.077 541.444 168.356 541.425C169.978 541.393 171.593 541.653 173.135 542.193L183.313 545.151C183.597 544.01 184.093 542.944 184.772 542.017C185.45 541.09 186.297 540.322 187.261 539.76C189.201 538.645 191.381 538.105 193.578 538.195C198.85 538.274 203.835 540.966 209.101 541.239C210.567 541.383 212.043 541.118 213.387 540.471C214.113 540.076 214.719 539.509 215.451 539.085C216.577 538.491 217.769 538.057 218.999 537.793C222.432 536.859 225.803 535.679 229.09 534.262C230.029 533.86 231.127 533.142 231 532.065C230.834 530.63 228.744 530.458 228.191 529.137C228.098 528.898 228.056 528.641 228.067 528.382C228.079 528.124 228.144 527.872 228.258 527.644C228.558 527.701 228.87 527.773 229.197 527.852C234.914 529.23 238.016 529.79 239.847 534.901Z" fill="black"/>
<path d="M210.558 425.295L208.781 470.393C208.781 470.393 206.118 479.602 207.563 482.237C209.007 484.871 211.444 487.498 210.558 489.056C209.673 490.613 199.023 507.453 195.581 500.992C192.14 494.532 188.745 466.539 188.745 466.539L191.92 431.963L210.558 425.295Z" fill="#444053"/>
<path d="M218.267 312.933L223.206 320.053V381.984C223.206 381.984 224.65 398.493 223.206 401.902C221.761 405.312 214.439 412.131 214.439 412.131L208.282 378.036L209.613 341.967L218.267 312.933Z" fill="#444053"/>
<path opacity="0.1" d="M210.558 425.295L208.781 470.393C208.781 470.393 206.118 479.602 207.563 482.237C209.007 484.871 211.444 487.498 210.558 489.056C209.673 490.613 199.023 507.453 195.581 500.992C192.14 494.532 188.745 466.539 188.745 466.539L191.92 431.963L210.558 425.295Z" fill="black"/>
<path opacity="0.1" d="M218.267 312.933L223.206 320.053V381.984C223.206 381.984 224.65 398.493 223.206 401.902C221.761 405.312 214.439 412.131 214.439 412.131L208.282 378.036L209.613 341.967L218.267 312.933Z" fill="black"/>
<path d="M223.206 286.518V320.017L217.661 346.094C217.661 346.094 215.884 409.023 217.434 416.674C218.985 424.326 212.109 431.511 212.109 431.511C212.109 431.511 208.115 431.992 208.115 435.337C208.115 438.682 201.459 448.257 201.459 448.257L201.679 466.919C201.679 466.919 204.567 501.854 200.128 508.551C195.688 515.248 201.679 516.21 201.679 516.21C196.134 535.827 169.508 531.283 167.105 529.13C164.702 526.976 167.105 484.627 167.105 484.627C167.105 484.627 173.056 420.026 177.715 417.155C182.375 414.284 177.941 410.695 179.492 406.388C181.043 402.082 177.941 390.36 177.941 390.36C177.941 390.36 176.61 376.478 173.282 369.781C169.954 363.084 170.393 344.659 170.393 344.659C170.393 344.659 161.074 331.258 158.305 325.996C155.536 320.735 153.752 307.097 154.417 296.804C154.87 289.849 158.258 279.721 160.408 273.892C161.44 271.1 162.186 269.291 162.186 269.291L162.818 269.471L199.176 279.735L223.206 286.518Z" fill="#444053"/>
<path opacity="0.1" d="M226.587 126.452C223.152 127.515 219.871 131.161 217.015 135.59H216.27C212.084 135.593 207.972 134.404 204.348 132.145C200.725 129.885 197.719 126.634 195.634 122.72C194.763 121.098 194.062 119.377 193.544 117.588C195.601 111.953 197.125 107.058 197.125 107.058C197.125 107.058 237.071 123.222 226.587 126.452Z" fill="black"/>
<path d="M240.067 108.508C240.072 112.435 239.242 116.311 237.64 119.838C236.038 123.365 233.706 126.449 230.824 128.851C227.943 131.253 224.588 132.91 221.02 133.694C217.451 134.478 213.763 134.368 210.239 133.372C206.716 132.377 203.451 130.523 200.697 127.953C197.943 125.383 195.773 122.166 194.354 118.549C192.934 114.932 192.304 111.012 192.511 107.09C192.718 103.169 193.757 99.3519 195.548 95.932C196.269 94.5424 197.112 93.2301 198.064 92.0129C199.634 89.9963 201.479 88.2489 203.536 86.8305C207.01 84.4497 210.998 83.0815 215.109 82.8595C219.221 82.6376 223.315 83.5695 226.992 85.5642C230.67 87.5589 233.805 90.5481 236.09 94.2399C238.376 97.9317 239.735 102.2 240.033 106.627C240.047 107.259 240.067 107.883 240.067 108.508Z" fill="#EFB7B9"/>
<path opacity="0.1" d="M220.07 169.936L219.991 170.725L208.921 152.063C207.763 155.013 207.117 156.987 207.117 156.987C207.117 156.987 180.824 135.64 184.984 134.204C186.382 133.723 188.219 130.493 190.036 126.423L190.263 125.907C192.193 132.108 203.409 144.504 208.075 149.472C208.615 150.046 209.061 150.52 209.407 150.864L210.119 151.582L210.492 151.984C212.189 153.872 219.352 162.198 220.07 169.936Z" fill="black"/>
<path d="M228.344 233.259L227.133 275.299L226.92 282.786C226.92 282.786 212.569 281.35 199.176 279.771C188.392 278.501 178.228 277.13 176.663 276.326C174.666 275.314 170.386 274.531 167.012 274.036C164.402 273.656 162.352 273.455 162.352 273.455C162.352 273.455 161.586 273.699 160.408 273.928C157.839 274.431 153.326 274.84 150.696 272.378C147.335 269.227 156.168 257.778 158.371 255.029L158.857 254.433L158.025 246.143L155.862 224.645C155.862 224.645 154.531 212.263 152.534 205.624C152 203.736 151.615 201.803 151.382 199.846C150.64 193.782 151.02 187.619 152.5 181.714C153.133 179.205 153.534 176.635 153.699 174.041C154.031 167.402 172.836 141.741 177.496 139.408C179.592 138.354 181.278 136.541 182.262 134.283C182.586 133.573 182.83 132.824 182.987 132.051C184.984 122.72 190.036 126.423 190.036 126.423C191.254 133.723 210.112 153.046 210.112 153.046L210.485 153.448C212.356 155.515 220.69 165.22 220.097 173.503C219.979 176.586 220.406 179.665 221.355 182.576C225.191 195.6 227.396 209.118 227.912 222.772L228.344 233.259Z" fill="#DCE6F2"/>
<path opacity="0.1" d="M201.625 183.337C201.625 183.337 196.966 195.539 193.471 197.513C189.976 199.487 203.289 201.676 201.625 183.337Z" fill="black"/>
<path opacity="0.1" d="M205.12 206.126C205.12 206.126 194.47 207.562 194.47 209.715C194.47 211.869 205.12 206.126 205.12 206.126Z" fill="black"/>
<path opacity="0.1" d="M216.27 220.123C216.27 220.123 200.793 255.654 196.467 256.73C192.14 257.807 216.27 220.123 216.27 220.123Z" fill="black"/>
<path opacity="0.1" d="M209.819 154.848L197.019 160.848L181.569 135.683C181.894 134.973 182.138 134.224 182.295 133.451C184.292 124.119 189.344 127.823 189.344 127.823C190.562 135.123 209.42 154.446 209.42 154.446L209.819 154.848Z" fill="black"/>
<path d="M210.485 153.412L197.685 159.413L182.235 134.247C182.56 133.538 182.803 132.788 182.96 132.015C184.957 122.684 190.01 126.388 190.01 126.388C191.228 133.687 210.086 153.01 210.086 153.01L210.485 153.412Z" fill="#DCE6F2"/>
<path opacity="0.1" d="M226.92 282.786C226.92 282.786 212.569 281.35 199.176 279.771L223.206 286.554V294.45C222.154 295.476 221.242 296.007 220.65 295.735C217.88 294.479 195.282 290.531 195.282 290.531C195.282 290.531 182.155 283.353 167.99 274.739C167.646 274.534 167.313 274.309 166.992 274.065C165.34 272.856 163.917 271.318 162.798 269.536C160.182 265.451 158.904 260.204 158.351 255.058C158.041 252.108 157.925 249.139 158.005 246.172C158.074 242.807 158.359 239.452 158.857 236.13C157.487 223.263 156.821 210.321 156.86 197.369C157.027 177.271 174.5 170.094 174.5 170.094C206.618 167.043 196.66 223.03 196.66 223.03C196.66 223.03 194.802 238.821 194.296 240.437C193.791 242.052 191.973 244.743 192.22 248.512C192.466 252.28 198.603 256.788 198.603 256.788C198.603 256.788 204.594 259.817 207.064 264.303C208.861 267.612 220.536 272.098 227.133 275.299L226.92 282.786Z" fill="black"/>
<path opacity="0.1" d="M237.677 92.5728C237.689 93.755 237.462 94.9259 237.011 96.0038C236.67 96.8833 236.274 97.737 235.826 98.5591C235.126 100.071 234.131 101.403 232.911 102.464C231.373 103.648 229.429 103.978 227.586 104.459C225.742 104.94 223.825 105.708 222.773 107.402C222.203 108.491 221.822 109.683 221.648 110.919C221.472 112.155 221.014 113.324 220.317 114.322C219.954 114.809 219.45 115.152 218.887 115.298C218.323 115.443 217.73 115.383 217.202 115.126C216.645 114.721 216.223 114.135 215.997 113.453C215.238 111.608 215.045 109.563 214.739 107.574C214.432 105.586 214 103.541 212.868 101.94C211.737 100.339 209.733 99.284 207.956 99.9085C207.361 100.155 206.818 100.529 206.361 101.008C205.903 101.487 205.54 102.06 205.293 102.694C204.801 103.962 204.463 105.294 204.288 106.656C203.462 111.527 202.488 116.37 201.366 121.184C201.331 121.381 201.256 121.567 201.146 121.729C200.969 121.919 200.73 122.028 200.48 122.031C198.989 122.246 197.558 121.119 196.054 121.241C195.899 121.252 195.745 121.279 195.595 121.32C193.162 116.762 192.088 111.508 192.518 106.269C192.948 101.031 194.861 96.0613 197.997 92.0344L198.117 91.9985C199.118 91.6155 200.027 90.9977 200.78 90.1897C201.741 89.1528 202.631 88.0421 203.443 86.8664L203.975 86.1486C205.505 84.161 207.248 82.3756 209.167 80.8298C209.691 80.367 210.292 80.0162 210.938 79.7962C211.49 79.6801 212.057 79.6607 212.615 79.7388C214.914 80.0363 217.232 80.13 219.545 80.0187C221.156 79.7455 222.781 79.5682 224.41 79.4875C228.624 79.6167 232.219 82.8252 234.881 86.3424C236.312 88.144 237.59 90.2184 237.677 92.5728Z" fill="black"/>
<path d="M192.439 96.6139C191.514 98.2504 189.843 99.363 189.218 101.157C188.299 103.763 189.85 107.007 188.425 109.333C187.953 110.115 187.174 110.697 186.908 111.594C186.455 113.109 187.693 114.724 187.374 116.281C187.054 117.839 185.15 119.152 185.656 120.674C185.955 121.338 186.48 121.852 187.121 122.11C188.129 122.734 189.29 123.011 190.449 122.906C192.266 122.583 193.618 120.66 195.461 120.516C196.959 120.401 198.39 121.521 199.881 121.313C200.131 121.303 200.369 121.193 200.547 121.004C200.66 120.844 200.735 120.657 200.767 120.459C201.885 115.65 202.861 110.807 203.695 105.931C203.865 104.568 204.201 103.236 204.694 101.969C204.943 101.336 205.307 100.764 205.764 100.286C206.221 99.8074 206.763 99.4326 207.357 99.1836C209.134 98.5663 211.131 99.6142 212.269 101.215C213.407 102.816 213.84 104.861 214.146 106.849C214.452 108.838 214.645 110.883 215.398 112.728C215.626 113.412 216.05 114 216.609 114.408C217.608 115.032 218.952 114.537 219.718 113.604C220.419 112.605 220.877 111.433 221.049 110.194C221.223 108.96 221.604 107.771 222.174 106.684C223.226 104.99 225.149 104.222 226.987 103.741C228.824 103.261 230.761 102.923 232.312 101.739C233.531 100.679 234.525 99.3502 235.227 97.8413C236.212 95.9894 237.131 93.9796 237.051 91.8478C236.965 89.5222 235.687 87.4478 234.322 85.6389C231.659 82.1218 228.058 78.9133 223.845 78.7913C222.214 78.8648 220.59 79.0421 218.979 79.3224C216.666 79.4346 214.348 79.3386 212.049 79.0353C211.49 78.9632 210.925 78.985 210.372 79.0999C209.725 79.3128 209.125 79.6644 208.608 80.1335C206.687 81.6768 204.942 83.4597 203.409 85.4451C202.421 86.858 201.349 88.2007 200.201 89.4647C199.448 90.274 198.539 90.8941 197.538 91.2807C196.873 91.4817 196.207 91.3382 195.575 91.5607C193.611 92.2282 193.351 94.9917 192.439 96.6139Z" fill="#965D7B"/>
<path opacity="0.1" d="M256.541 116.13C251.216 117.186 246.803 112.542 244.36 109.154C243.61 108.125 242.927 107.041 242.316 105.909L260.595 109.627L261.334 109.778C261.334 109.778 264.696 114.523 256.541 116.13Z" fill="black"/>
<g opacity="0.1">
<path opacity="0.1" d="M187.374 114.228C187.448 113.29 187.316 112.345 186.988 111.472C186.988 111.544 186.928 111.616 186.908 111.687C186.622 112.649 187.008 113.647 187.254 114.645C187.307 114.511 187.347 114.371 187.374 114.228Z" fill="black"/>
<path opacity="0.1" d="M188.958 102.478C188.889 103.471 188.907 104.468 189.011 105.457C189.079 104.464 189.062 103.467 188.958 102.478Z" fill="black"/>
<path opacity="0.1" d="M235.187 95.7669C234.487 97.2791 233.492 98.6109 232.272 99.6716C230.734 100.856 228.797 101.186 226.947 101.667C225.096 102.148 223.186 102.916 222.134 104.61C221.565 105.699 221.184 106.891 221.009 108.127C220.836 109.366 220.378 110.538 219.678 111.537C218.912 112.47 217.568 112.972 216.569 112.341C216.01 111.933 215.586 111.345 215.358 110.661C214.605 108.816 214.406 106.778 214.106 104.782C213.807 102.787 213.361 100.748 212.229 99.1477C211.097 97.547 209.094 96.4919 207.317 97.1163C206.722 97.3644 206.18 97.7387 205.723 98.2172C205.266 98.6956 204.902 99.2684 204.654 99.9013C204.161 101.169 203.826 102.501 203.656 103.864C202.826 108.74 201.849 113.582 200.727 118.391C200.695 118.59 200.62 118.777 200.507 118.937C200.329 119.126 200.091 119.236 199.841 119.246C198.35 119.454 196.919 118.334 195.421 118.449C193.578 118.592 192.226 120.516 190.409 120.832C189.25 120.944 188.087 120.666 187.081 120.035C186.618 119.821 186.203 119.503 185.863 119.102C185.707 119.343 185.604 119.618 185.561 119.908C185.519 120.197 185.537 120.494 185.616 120.775C185.91 121.443 186.436 121.959 187.081 122.21C188.087 122.841 189.25 123.119 190.409 123.007C192.226 122.691 193.578 120.767 195.421 120.624C196.919 120.509 198.35 121.629 199.841 121.421C200.091 121.411 200.329 121.301 200.507 121.112C200.62 120.952 200.695 120.765 200.727 120.566C201.845 115.781 202.821 110.938 203.656 106.038C203.826 104.676 204.161 103.344 204.654 102.076C204.902 101.443 205.266 100.87 205.723 100.392C206.18 99.9136 206.722 99.5392 207.317 99.2912C209.094 98.6667 211.091 99.7219 212.229 101.323C213.367 102.923 213.8 104.969 214.106 106.957C214.412 108.945 214.605 110.991 215.358 112.836C215.586 113.52 216.01 114.108 216.569 114.515C217.568 115.14 218.912 114.645 219.678 113.712C220.378 112.712 220.836 111.54 221.009 110.302C221.184 109.066 221.565 107.874 222.134 106.785C223.186 105.091 225.109 104.33 226.947 103.842C228.784 103.354 230.721 103.031 232.272 101.847C233.492 100.786 234.487 99.454 235.187 97.9418C236.173 96.0971 237.091 94.0873 237.011 91.9555C236.998 91.6814 236.972 91.4082 236.931 91.1372C236.61 92.78 236.02 94.3479 235.187 95.7669Z" fill="black"/>
</g>
<path opacity="0.1" d="M237.038 95.9822C238.745 99.255 239.757 102.896 240 106.641C234.069 103.052 228.491 99.1118 225.675 97.7408C220.769 95.3506 202.424 95.7095 195.528 95.932C196.249 94.5424 197.092 93.2301 198.044 92.0129C199.62 89.9946 201.472 88.2471 203.536 86.8305C206.269 84.9598 209.328 83.7099 212.524 83.1572C215.721 82.6044 218.988 82.7605 222.127 83.6157C225.266 84.4709 228.21 86.0074 230.78 88.1312C233.349 90.2551 235.49 92.9216 237.071 95.9679L237.038 95.9822Z" fill="black"/>
<path opacity="0.1" d="M258.206 113.087C255.004 114.149 249.778 112.097 244.36 109.154C243.61 108.125 242.927 107.041 242.316 105.909L260.595 109.627C261.807 110.517 262.113 111.788 258.206 113.087Z" fill="black"/>
<path d="M217.687 71.0966C217.687 71.0966 200.214 70.0199 195.302 80.2484L194.509 89.314L193.178 89.1561L192.912 95.3219C192.912 95.3219 219.618 94.0657 225.695 97.023C231.773 99.9803 250.657 114.882 258.225 112.369C265.794 109.857 257.56 107.524 257.56 107.524C257.56 107.524 247.142 102.765 247.142 99.0328C247.142 95.3003 244.56 75.5828 217.687 71.0966Z" fill="#444053"/>
<path opacity="0.1" d="M183.986 407.164C183.986 407.164 195.135 418.828 199.961 417.93C199.961 417.93 186.315 416.674 183.986 407.164Z" fill="black"/>
<path opacity="0.1" d="M181.656 412.569C181.656 412.569 182.654 418.569 185.317 417.981C187.979 417.392 181.656 412.569 181.656 412.569Z" fill="black"/>
<path opacity="0.1" d="M199.129 512.857C199.129 512.857 183.3 526.137 185.969 526.495C188.638 526.854 199.129 512.857 199.129 512.857Z" fill="black"/>
<path d="M220.303 249.308L271.558 240.314V292.641L222.86 289.892L220.303 249.308Z" fill="#BEBEC3"/>
<path opacity="0.05" d="M220.303 249.308L271.558 240.314V292.641L222.86 289.892L220.303 249.308Z" fill="black"/>
<path d="M271.558 240.314L333.025 245.274L329.623 290.811L271.558 292.641V240.314Z" fill="#BEBEC3"/>
<path opacity="0.1" d="M271.558 240.314L333.025 245.274L329.623 290.811L271.558 292.641V240.314Z" fill="black"/>
<path d="M290.456 224.344L271.558 240.314L333.025 245.274L343.069 228.93L290.456 224.344Z" fill="#BEBEC3"/>
<path d="M201.745 231.866L247.888 225.808L271.558 240.314L220.303 249.308L201.745 231.866Z" fill="#BEBEC3"/>
<path d="M282.795 253.902V325.444L258.785 322.788L248.341 321.64L245.159 321.281L234.721 320.125L220.303 318.532V249.308L271.552 253.07L282.795 253.902Z" fill="#BEBEC3"/>
<path d="M333.025 245.274V315.043L313.781 319.027L304.422 320.965L282.795 325.444V253.902L333.025 245.274Z" fill="#BEBEC3"/>
<path opacity="0.05" d="M333.025 245.274V315.043L313.781 319.027L304.422 320.965L282.795 325.444V253.902L333.025 245.274Z" fill="black"/>
<path d="M201.745 264.367L220.303 249.308L282.795 253.902L273.595 270.612L201.745 264.367Z" fill="#BEBEC3"/>
<path opacity="0.1" d="M201.745 264.367L220.303 249.308L282.795 253.902L273.595 270.612L201.745 264.367Z" fill="white"/>
<path d="M333.025 245.274L282.795 253.902L299.143 269.693L352.947 259.96L333.025 245.274Z" fill="#BEBEC3"/>
<path opacity="0.1" d="M333.025 245.274L282.795 253.902L299.143 269.693L352.947 259.96L333.025 245.274Z" fill="white"/>
<path opacity="0.1" d="M313.781 319.027L304.422 320.965V306.056L313.188 303.673L313.781 319.027Z" fill="white"/>
<path opacity="0.1" d="M258.785 312.926V322.788L248.341 321.64V312.926H258.785Z" fill="white"/>
<path opacity="0.1" d="M245.159 316.034V321.281L234.721 320.125V316.034H245.159Z" fill="white"/>
<path opacity="0.1" d="M276.511 307.693C269.355 317.562 245.725 310.744 245.725 310.744L228.165 290.99L225.782 288.313L230.441 278.982C230.441 278.982 231.773 279.455 233.996 280.288C245.765 284.724 282.535 299.388 276.511 307.693Z" fill="black"/>
<path d="M275.845 306.257C268.689 316.127 245.059 309.308 245.059 309.308L227.499 289.555L225.116 286.877L229.776 277.546C229.776 277.546 231.107 278.02 233.33 278.852C245.099 283.288 281.869 297.953 275.845 306.257Z" fill="#EFB7B9"/>
<path opacity="0.1" d="M233.304 278.852C232.332 281.867 229.862 286.332 227.472 289.555L225.089 286.877L229.749 277.546C229.749 277.546 231.087 278.02 233.304 278.852Z" fill="black"/>
<path d="M175.166 167.222C175.166 167.222 157.692 174.4 157.526 194.498C157.486 207.449 158.153 220.392 159.523 233.259C159.523 233.259 154.531 263.226 168.676 271.84C182.821 280.453 195.967 287.631 195.967 287.631C195.967 287.631 218.566 291.579 221.342 292.835C224.118 294.091 233.763 277.941 232.265 275.249C230.767 272.557 210.192 265.918 207.749 261.432C205.306 256.946 199.289 253.924 199.289 253.924C199.289 253.924 193.152 249.409 192.905 245.64C192.659 241.872 194.47 239.18 194.982 237.565C195.495 235.95 197.352 220.159 197.352 220.159C197.352 220.159 207.283 164.136 175.166 167.222Z" fill="#DCE6F2"/>
<path opacity="0.1" d="M183.154 233.761C183.154 233.761 159.523 236.632 161.353 245.605C161.353 245.605 170.333 236.553 183.154 233.761Z" fill="black"/>
<path opacity="0.1" d="M183.154 237.35C183.154 237.35 169.741 247.937 172.204 248.655C174.666 249.373 183.154 237.35 183.154 237.35Z" fill="black"/>
<path opacity="0.1" d="M189.144 241.657C189.144 241.657 185.317 249.079 187.48 248.691C189.644 248.303 189.144 241.657 189.144 241.657Z" fill="black"/>
<path d="M435.182 80.6719C435.182 80.6719 409.887 79.0281 412.843 98.1643C412.843 98.1643 412.25 101.545 415.093 103.081C415.093 103.081 415.139 101.646 417.689 102.141C418.596 102.306 419.519 102.354 420.438 102.284C421.682 102.195 422.865 101.668 423.806 100.784C423.806 100.784 430.922 97.6188 433.691 85.0719C433.691 85.0719 435.741 82.33 435.688 81.6265L431.414 83.6004C431.414 83.6004 432.872 86.9238 431.72 89.6872C431.72 89.6872 431.587 83.7225 430.762 83.8588C430.595 83.8588 428.545 85.0145 428.545 85.0145C428.545 85.0145 431.055 90.7998 429.158 95.0132C429.158 95.0132 429.877 87.8784 427.76 85.4308L424.751 87.3257C424.751 87.3257 427.687 93.3049 425.696 98.1858C425.696 98.1858 426.209 90.6993 424.119 87.7851L421.39 90.0749C421.39 90.0749 424.152 95.975 422.468 100.023C422.468 100.023 422.248 91.3094 420.797 90.6491C420.797 90.6491 418.414 92.9173 418.055 93.8504C418.055 93.8504 419.938 98.1571 418.767 100.389C418.767 100.389 418.048 94.5825 417.436 94.5538C417.436 94.5538 415.059 98.4012 414.813 101.014C414.928 98.5781 415.633 96.2173 416.856 94.1662C415.487 94.4456 414.223 95.1519 413.222 96.1976C413.222 96.1976 413.588 93.4771 417.442 93.2403C417.442 93.2403 419.439 90.3189 419.932 90.1395C419.932 90.1395 416.098 89.7949 413.775 90.9075C413.775 90.9075 415.818 88.345 420.637 89.4719L423.3 87.1032C423.3 87.1032 418.254 86.3854 416.111 87.1822C416.111 87.1822 418.574 84.914 424.026 86.5649L426.954 84.6771C426.954 84.6771 422.654 83.6722 420.092 84.0383C420.092 84.0383 422.794 82.4663 427.813 84.1675L429.91 83.1554C429.91 83.1554 426.755 82.4879 425.836 82.3802C424.918 82.2725 424.864 81.9998 424.864 81.9998C426.86 81.6415 428.91 81.8901 430.782 82.7176C430.782 82.7176 435.275 80.9733 435.182 80.6719Z" fill="#BEBEC3"/>
<path opacity="0.1" d="M512.038 176.381C512.038 176.381 486.743 174.738 489.699 193.874C489.699 193.874 489.106 197.255 491.948 198.791C491.948 198.791 491.995 197.355 494.551 197.85C495.459 198.015 496.382 198.063 497.3 197.994C498.53 197.898 499.698 197.374 500.628 196.501C500.628 196.501 507.751 193.328 510.52 180.781C510.52 180.781 512.564 178.047 512.484 177.343L508.21 179.31C508.21 179.31 509.668 182.633 508.523 185.397C508.523 185.397 508.383 179.432 507.565 179.568C507.398 179.568 505.341 180.724 505.341 180.724C505.341 180.724 507.857 186.516 505.96 190.723C505.96 190.723 506.679 183.588 504.556 181.14L501.58 183.014C501.58 183.014 504.516 188.993 502.526 193.874C502.526 193.874 503.038 186.387 500.948 183.473L498.226 185.77C498.226 185.77 500.981 191.663 499.304 195.711C499.304 195.711 499.084 186.997 497.633 186.337C497.633 186.337 495.25 188.605 494.884 189.538C494.884 189.538 496.774 193.845 495.603 196.077C495.603 196.077 494.884 190.27 494.272 190.242C494.272 190.242 491.895 194.089 491.649 196.702C491.768 194.266 492.475 191.905 493.699 189.854C492.328 190.134 491.062 190.84 490.058 191.885C490.058 191.885 490.431 189.165 494.285 188.928C494.285 188.928 496.249 186.007 496.774 185.827C496.774 185.827 492.94 185.483 490.617 186.595C490.617 186.595 492.661 184.033 497.473 185.196L500.136 182.827C500.136 182.827 495.084 182.109 492.947 182.906C492.947 182.906 495.41 180.638 500.861 182.289L503.79 180.401C503.79 180.401 499.484 179.403 496.921 179.762C496.921 179.762 499.63 178.19 504.649 179.891L506.746 178.879C506.746 178.879 503.591 178.212 502.665 178.104C501.74 177.996 501.694 177.724 501.694 177.724C503.692 177.365 505.743 177.614 507.618 178.441C507.618 178.441 512.118 176.683 512.038 176.381Z" fill="#BEBEC3"/>
<path opacity="0.1" d="M358.373 159.391C358.373 159.391 364.197 132.769 346.198 132.675C346.198 132.675 343.209 131.47 341.325 134.226C341.325 134.226 342.61 134.52 341.738 137.147C341.436 138.076 341.235 139.04 341.139 140.018C341.01 141.353 341.288 142.696 341.931 143.844C341.931 143.844 343.615 151.955 354.578 157.037C354.578 157.037 356.735 159.678 357.387 159.707L356.322 154.833C356.322 154.833 353.034 155.817 350.704 154.116C350.704 154.116 356.183 154.984 356.189 154.116C356.189 153.936 355.524 151.56 355.524 151.56C355.524 151.56 349.806 153.24 346.278 150.505C346.278 150.505 352.675 152.486 355.277 150.656L354.079 147.124C354.079 147.124 348.088 149.228 343.988 146.277C343.988 146.277 350.744 148.101 353.766 146.378L352.135 143.09C352.135 143.09 346.278 145.014 342.863 142.538C342.863 142.538 350.851 143.787 351.716 142.366C351.716 142.366 350.052 139.444 349.26 138.899C349.26 138.899 345.026 140.176 343.162 138.547C343.162 138.547 348.587 138.769 348.714 138.152C348.714 138.152 345.605 134.972 343.236 134.255C345.444 134.797 347.483 135.949 349.153 137.599C349.129 136.095 348.699 134.631 347.915 133.386C347.915 133.386 350.338 134.247 349.912 138.411C349.912 138.411 352.242 140.995 352.315 141.583C352.315 141.583 353.28 137.571 352.661 134.908C352.661 134.908 354.658 137.52 352.774 142.437L354.478 145.703C354.478 145.703 356.023 140.463 355.63 138.052C355.63 138.052 357.288 141.052 354.845 146.565L356.076 150.003C356.076 150.003 357.72 145.596 357.827 142.825C357.827 142.825 358.805 145.969 356.389 151.015L356.961 153.412C356.961 153.412 358.106 150.175 358.359 149.213C358.612 148.251 358.872 148.244 358.872 148.244C358.862 150.428 358.288 152.565 357.214 154.417C357.214 154.417 358.086 159.427 358.373 159.391Z" fill="#BEBEC3"/>
<path opacity="0.1" d="M302.977 168.464C302.977 168.464 282.661 152.077 275.399 169.828C275.399 169.828 273.183 172.304 274.774 175.269C274.774 175.269 275.532 174.113 277.436 176.03C278.11 176.706 278.857 177.294 279.659 177.781C280.747 178.434 282.002 178.686 283.234 178.499C283.234 178.499 290.796 180.071 299.502 171.235C299.502 171.235 302.611 170.158 302.904 169.526L298.318 168.658C298.318 168.658 297.838 172.297 295.475 173.927C295.475 173.927 298.397 168.859 297.639 168.493C297.486 168.414 295.196 168.134 295.196 168.134C295.196 168.134 294.344 174.465 290.616 176.855C290.616 176.855 294.856 171.321 294.33 168.019L290.849 167.818C290.849 167.818 290.257 174.558 286.103 177.458C286.103 177.458 290.343 171.508 290.097 167.833L286.649 168.134C286.649 168.134 285.95 174.687 282.482 177.07C282.482 177.07 286.735 169.663 285.863 168.256C285.863 168.256 282.715 168.737 281.936 169.297C281.936 169.297 281.33 173.991 279.2 175.183C279.2 175.183 281.563 169.907 281.084 169.541C281.084 169.541 277.137 171.342 275.586 173.395C276.927 171.43 278.722 169.876 280.791 168.888C279.503 168.311 278.088 168.151 276.717 168.428C276.717 168.428 278.408 166.375 281.75 168.464C281.75 168.464 284.878 167.194 285.411 167.352C285.411 167.352 282.382 164.789 279.872 164.344C279.872 164.344 282.894 163.411 286.323 167.215L289.777 166.835C289.777 166.835 285.936 163.246 283.733 162.643C283.733 162.643 286.948 162.205 290.656 166.813L294.064 166.978C294.064 166.978 290.982 163.59 288.659 162.37C288.659 162.37 291.714 162.657 295.043 167.057L297.312 167.452C297.312 167.452 295.016 165.026 294.297 164.394C293.578 163.763 293.678 163.497 293.678 163.497C295.53 164.381 297.118 165.803 298.264 167.603C298.264 167.603 302.891 168.758 302.977 168.464Z" fill="#BEBEC3"/>
<path opacity="0.1" d="M370.614 16.2148C370.614 16.2148 350.298 -0.179447 343.036 17.5786C343.036 17.5786 340.819 20.0549 342.41 23.0194C342.41 23.0194 343.169 21.8637 345.073 23.7802C345.751 24.4532 346.499 25.0386 347.303 25.5244C348.39 26.1777 349.645 26.4298 350.877 26.2422C350.877 26.2422 358.439 27.8142 367.146 18.9711C367.146 18.9711 370.254 17.9016 370.541 17.2627L365.954 16.4086C365.954 16.4086 365.482 20.0477 363.112 21.6771C363.112 21.6771 366.041 16.6096 365.282 16.2435C365.129 16.1645 362.839 15.8846 362.839 15.8846C362.839 15.8846 361.96 22.2298 358.233 24.6057C358.233 24.6057 362.466 19.0716 361.947 15.7697L358.466 15.5688C358.466 15.5688 357.867 22.3088 353.72 25.2014C353.72 25.2014 357.96 19.251 357.714 15.5759L354.272 15.8774C354.272 15.8774 353.567 22.438 350.098 24.821C350.098 24.821 354.359 17.4135 353.487 16.0066C353.487 16.0066 350.338 16.4875 349.559 17.0474C349.559 17.0474 348.954 21.7417 346.824 22.9332C346.824 22.9332 349.187 17.6575 348.707 17.2843C348.707 17.2843 344.76 19.0931 343.209 21.146C344.549 19.1783 346.344 17.624 348.414 16.6383C347.125 16.0569 345.706 15.8971 344.334 16.1789C344.334 16.1789 346.031 14.126 349.373 16.2148C349.373 16.2148 352.502 14.9371 353.034 15.1022C353.034 15.1022 350.005 12.5397 347.496 12.0875C347.496 12.0875 350.511 11.1616 353.939 14.9586L357.394 14.5782C357.394 14.5782 353.56 10.9893 351.35 10.3792C351.35 10.3792 354.565 9.9485 358.279 14.5567L361.687 14.7146C361.687 14.7146 358.606 11.3267 356.276 10.1136C356.276 10.1136 359.338 10.4007 362.666 14.8007L364.929 15.1955C364.929 15.1955 362.626 12.7981 361.907 12.1808C361.188 11.5635 361.288 11.2908 361.288 11.2908C363.14 12.1741 364.728 13.5956 365.874 15.3965C365.874 15.3965 370.501 16.4875 370.614 16.2148Z" fill="#BEBEC3"/>
<path opacity="0.1" d="M448.242 36.9803C448.242 36.9803 440.121 11.0611 424.804 21.2464C424.804 21.2464 421.676 21.9642 421.43 25.345C421.43 25.345 422.661 24.8569 423.207 27.5845C423.41 28.5547 423.716 29.4965 424.119 30.391C424.669 31.5949 425.566 32.5744 426.675 33.1832C426.675 33.1832 432.08 39.1049 443.902 37.1454C443.902 37.1454 447.024 38.1646 447.596 37.8129L444.268 34.2886C444.268 34.2886 441.965 36.9946 439.156 36.887C439.156 36.887 444.235 34.5039 443.815 33.7359C443.729 33.5852 441.991 31.9558 441.991 31.9558C441.991 31.9558 437.958 36.6429 433.631 36.3343C433.631 36.3343 440.028 34.3675 441.332 31.3098L438.577 29.02C438.577 29.02 434.543 34.2025 429.597 34.0445C429.597 34.0445 436.254 31.7404 437.938 28.5535L434.942 26.6944C434.942 26.6944 430.948 31.6687 426.808 31.5108C426.808 31.5108 434.21 28.0151 434.23 26.3212C434.23 26.3212 431.388 24.7923 430.449 24.7779C430.449 24.7779 427.48 28.2736 425.124 27.9577C425.124 27.9577 429.837 25.0507 429.637 24.4549C429.637 24.4549 425.443 23.529 423.08 24.2755C425.218 23.473 427.512 23.2875 429.737 23.7371C428.977 22.4731 427.892 21.4753 426.615 20.866C426.615 20.866 429.091 20.2128 430.749 23.974C430.749 23.974 433.997 24.8425 434.343 25.2947C434.343 25.2947 433.198 21.3397 431.368 19.4304C431.368 19.4304 434.343 20.5143 435.155 25.7613L438.204 27.5558C438.204 27.5558 436.946 22.237 435.428 20.3779C435.428 20.3779 438.31 21.9858 438.936 28.051L441.665 30.269C441.665 30.269 440.906 25.589 439.628 23.1629C439.628 23.1629 441.998 25.2732 442.424 30.9365L444.082 32.6449C444.082 32.6449 443.469 29.2426 443.216 28.2807C442.963 27.3189 443.17 27.2543 443.17 27.2543C444.228 29.1163 444.788 31.2578 444.787 33.4416C444.787 33.4416 448.009 37.1669 448.242 36.9803Z" fill="#BEBEC3"/>
<path opacity="0.1" d="M395.243 38.2579C395.243 38.2579 370.015 35.2289 372.098 54.5301C372.098 54.5301 371.346 57.875 374.095 59.5546C374.095 59.5546 374.208 58.1191 376.758 58.7651C377.659 58.9741 378.579 59.0728 379.5 59.0594C380.745 59.0351 381.949 58.574 382.928 57.7458C382.928 57.7458 390.191 54.968 393.579 42.5862C393.579 42.5862 395.749 39.9663 395.702 39.2557L391.342 40.9927C391.342 40.9927 392.673 44.3878 391.342 47.0867C391.342 47.0867 391.482 41.1219 390.677 41.2152C390.51 41.2152 388.407 42.2488 388.407 42.2488C388.407 42.2488 390.643 48.1706 388.553 52.2978C388.553 52.2978 389.605 45.2061 387.601 42.6508L384.506 44.3735C384.506 44.3735 387.169 50.5105 384.939 55.2766C384.939 55.2766 385.804 47.826 383.854 44.8041L381.025 46.9575C381.025 46.9575 383.501 52.9941 381.63 56.9491C381.63 56.9491 381.823 48.2352 380.406 47.4958C380.406 47.4958 377.916 49.6492 377.51 50.5393C377.51 50.5393 379.194 54.9177 377.923 57.107C377.923 57.107 377.477 51.2714 376.891 51.214C376.891 51.214 374.335 54.9249 373.962 57.5448C374.193 55.1159 375.01 52.7945 376.332 50.812C374.95 51.0178 373.655 51.654 372.604 52.6424C372.604 52.6424 373.097 49.9507 376.957 49.922C376.957 49.922 379.054 47.1154 379.62 46.9647C379.62 46.9647 375.806 46.412 373.43 47.3953C373.43 47.3953 375.593 44.9405 380.346 46.3689L383.148 44.151C383.148 44.151 378.082 43.0456 375.939 43.7634C375.939 43.7634 378.508 41.61 383.874 43.5839L386.889 41.854C386.889 41.854 382.635 40.6195 380.059 40.842C380.059 40.842 382.835 39.4064 387.768 41.3947L389.911 40.4974C389.911 40.4974 386.789 39.6576 385.871 39.4997C384.952 39.3418 384.919 39.069 384.919 39.069C386.931 38.8201 388.968 39.1779 390.803 40.1027C390.803 40.1027 395.289 38.5594 395.243 38.2579Z" fill="#BEBEC3"/>
<path opacity="0.1" d="M615.972 249.409C615.972 249.409 590.757 246.38 592.841 265.659C592.841 265.659 592.089 269.004 594.838 270.684C594.838 270.684 594.951 269.248 597.5 269.887C598.4 270.103 599.321 270.202 600.243 270.182C601.488 270.161 602.693 269.699 603.671 268.868C603.671 268.868 610.933 266.09 614.288 253.716C614.288 253.716 616.458 251.088 616.412 250.385L612.052 252.115C612.052 252.115 613.383 255.517 612.052 258.216C612.052 258.216 612.191 252.244 611.386 252.345C611.22 252.345 609.116 253.371 609.116 253.371C609.116 253.371 611.353 259.293 609.263 263.42C609.263 263.42 610.314 256.335 608.311 253.773L605.215 255.503C605.215 255.503 607.878 261.64 605.655 266.406C605.655 266.406 606.513 258.955 604.563 255.926L601.734 258.08C601.734 258.08 604.21 264.116 602.34 268.064C602.34 268.064 602.533 259.35 601.115 258.618C601.115 258.618 598.632 260.771 598.219 261.661C598.219 261.661 599.91 266.04 598.632 268.229C598.632 268.229 598.186 262.394 597.6 262.336C597.6 262.336 595.044 266.047 594.671 268.667C594.902 266.238 595.719 263.917 597.041 261.934C595.659 262.136 594.362 262.773 593.314 263.765C593.314 263.765 593.806 261.066 597.667 261.037C597.667 261.037 599.77 258.23 600.33 258.087C600.33 258.087 596.515 257.527 594.139 258.51C594.139 258.51 596.302 256.063 601.062 257.491L603.857 255.273C603.857 255.273 598.852 254.254 596.675 254.957C596.675 254.957 599.245 252.804 604.61 254.771L607.625 253.048C607.625 253.048 603.372 251.813 600.795 252.036C600.795 252.036 603.571 250.6 608.504 252.589L610.647 251.684C610.647 251.684 607.525 250.844 606.607 250.694C605.688 250.543 605.655 250.263 605.655 250.263C607.667 250.009 609.704 250.365 611.539 251.289C611.539 251.289 616.039 249.717 615.972 249.409Z" fill="#BEBEC3"/>
<path opacity="0.1" d="M654.52 274.804C654.52 274.804 629.305 271.782 631.389 291.055C631.389 291.055 630.643 294.4 633.386 296.079C633.386 296.079 633.499 294.644 636.048 295.29C636.947 295.5 637.865 295.597 638.784 295.577C640.023 295.549 641.221 295.091 642.199 294.27C642.199 294.27 649.454 291.493 652.809 279.111C652.809 279.111 654.986 276.491 654.933 275.78L650.573 277.51C650.573 277.51 651.904 280.912 650.573 283.611C650.573 283.611 650.712 277.646 649.907 277.74C649.741 277.74 647.637 278.766 647.637 278.766C647.637 278.766 649.874 284.688 647.784 288.815C647.784 288.815 648.835 281.731 646.832 279.175L643.737 280.898C643.737 280.898 646.399 287.035 644.176 291.801C644.176 291.801 645.034 284.351 643.084 281.329L640.255 283.482C640.255 283.482 642.731 289.519 640.868 293.474C640.868 293.474 641.054 284.753 639.636 284.02C639.636 284.02 637.153 286.174 636.741 287.064C636.741 287.064 638.431 291.442 637.153 293.632C637.153 293.632 636.707 287.796 636.121 287.739C636.121 287.739 633.565 291.449 633.199 294.069C633.43 291.642 634.244 289.321 635.562 287.337C634.181 287.542 632.886 288.179 631.835 289.167C631.835 289.167 632.334 286.468 636.195 286.447C636.195 286.447 638.291 283.64 638.857 283.489C638.857 283.489 635.043 282.937 632.667 283.92C632.667 283.92 634.83 281.465 639.589 282.893L642.385 280.676C642.385 280.676 637.38 279.656 635.203 280.36C635.203 280.36 637.772 278.206 643.137 280.18L646.153 278.45C646.153 278.45 641.899 277.216 639.323 277.438C639.323 277.438 642.099 276.003 647.031 277.991L649.175 277.094C649.175 277.094 646.053 276.254 645.141 276.096C644.229 275.938 644.182 275.665 644.182 275.665C646.195 275.416 648.232 275.774 650.067 276.699C650.067 276.699 654.587 275.113 654.52 274.804Z" fill="#BEBEC3"/>
<path opacity="0.1" d="M568.937 60.8969C568.937 60.8969 548.622 44.5099 541.36 62.2607C541.36 62.2607 539.143 64.737 540.734 67.7015C540.734 67.7015 541.493 66.5459 543.397 68.4623C544.071 69.1388 544.817 69.7267 545.62 70.2137C546.707 70.866 547.962 71.118 549.194 70.9315C549.194 70.9315 556.756 72.5035 565.469 63.6675C565.469 63.6675 568.571 62.5909 568.864 61.9592L564.291 61.0692C564.291 61.0692 563.812 64.7083 561.449 66.3377C561.449 66.3377 564.371 61.2701 563.612 60.9041C563.459 60.8251 561.176 60.5452 561.176 60.5452C561.176 60.5452 560.317 66.876 556.59 69.2663C556.59 69.2663 560.83 63.7321 560.304 60.4303L556.823 60.2293C556.823 60.2293 556.23 66.9693 552.077 69.8692C552.077 69.8692 556.323 63.9188 556.07 60.2437L552.622 60.5452C552.622 60.5452 551.957 67.0986 548.455 69.4816C548.455 69.4816 552.716 62.0741 551.837 60.6672C551.837 60.6672 548.688 61.1481 547.91 61.708C547.91 61.708 547.311 66.4023 545.18 67.5938C545.18 67.5938 547.537 62.3181 547.058 61.952C547.058 61.952 543.11 63.7537 541.559 65.8065C542.901 63.841 544.695 62.2872 546.765 61.2988C545.477 60.7218 544.061 60.5621 542.691 60.8395C542.691 60.8395 544.388 58.7866 547.73 60.8753C547.73 60.8753 550.852 59.6049 551.384 59.7628C551.384 59.7628 548.356 57.2003 545.846 56.7553C545.846 56.7553 548.868 55.8221 552.296 59.6264L555.751 59.246C555.751 59.246 551.917 55.6571 549.707 55.0541C549.707 55.0541 552.922 54.6163 556.63 59.2244L560.044 59.3895C560.044 59.3895 556.956 56.0016 554.633 54.7814C554.633 54.7814 557.695 55.0685 561.016 59.4685L563.286 59.8633C563.286 59.8633 560.99 57.4372 560.271 56.8055C559.552 56.1739 559.658 55.9657 559.658 55.9657C561.507 56.8514 563.093 58.2726 564.238 60.0714C564.238 60.0714 568.851 61.1912 568.937 60.8969Z" fill="#BEBEC3"/>
<path opacity="0.1" d="M584.634 179.202C584.634 179.202 577.631 152.91 561.882 162.349C561.882 162.349 558.726 162.873 558.334 166.275C558.334 166.275 559.585 165.851 560.018 168.601C560.178 169.588 560.446 170.552 560.817 171.472C561.31 172.709 562.166 173.737 563.253 174.4C563.253 174.4 568.405 180.573 580.293 179.195C580.293 179.195 583.369 180.358 583.955 180.042L580.806 176.353C580.806 176.353 578.39 178.951 575.594 178.707C575.594 178.707 580.759 176.554 580.36 175.786C580.28 175.628 578.616 173.912 578.616 173.912C578.616 173.912 574.396 178.405 570.082 177.882C570.082 177.882 576.559 176.231 577.984 173.259L575.321 170.833C575.321 170.833 571.074 175.814 566.142 175.427C566.142 175.427 572.851 173.438 574.702 170.345L571.786 168.342C571.786 168.342 567.56 173.115 563.459 172.757C563.459 172.757 571.001 169.62 571.094 167.933C571.094 167.933 568.312 166.268 567.373 166.21C567.373 166.21 564.265 169.555 561.902 169.125C561.902 169.125 566.734 166.447 566.561 165.844C566.561 165.844 562.407 164.717 560.018 165.342C562.182 164.65 564.476 164.578 566.674 165.134C565.97 163.835 564.929 162.787 563.679 162.119C563.679 162.119 566.182 161.581 567.673 165.421C567.673 165.421 570.875 166.44 571.207 166.914C571.207 166.914 570.229 162.901 568.478 160.913C568.478 160.913 571.407 162.133 571.999 167.416L574.968 169.361C574.968 169.361 573.93 163.978 572.492 162.083C572.492 162.083 575.301 163.827 575.681 169.914L578.343 172.261C578.343 172.261 577.777 167.553 576.606 165.083C576.606 165.083 578.889 167.309 579.075 172.979L580.66 174.773C580.66 174.773 580.194 171.342 579.994 170.366C579.794 169.39 579.994 169.254 579.994 169.254C580.979 171.163 581.451 173.33 581.359 175.513C581.359 175.513 584.394 179.374 584.634 179.202Z" fill="#BEBEC3"/>
<path opacity="0.1" d="M428.592 238.448C428.592 238.448 414.993 215.35 402.365 229.174C402.365 229.174 399.476 230.61 399.982 234.019C399.982 234.019 401.081 233.23 402.212 235.742C402.619 236.632 403.124 237.466 403.717 238.226C404.51 239.262 405.598 239.988 406.812 240.293C406.812 240.293 413.369 244.657 424.418 239.719C424.418 239.719 427.673 239.905 428.153 239.424L424.159 236.84C424.159 236.84 422.515 240.07 419.765 240.681C419.765 240.681 424.172 237.092 423.58 236.431C423.466 236.302 421.416 235.168 421.416 235.168C421.416 235.168 418.534 240.752 414.26 241.563C414.26 241.563 420.045 238.01 420.644 234.723L417.456 233.208C417.456 233.208 414.68 239.274 409.847 240.386C409.847 240.386 415.771 236.446 416.737 232.914L413.408 231.88C413.408 231.88 410.599 237.745 406.572 238.642C406.572 238.642 412.989 233.345 412.636 231.694C412.636 231.694 409.534 230.94 408.642 231.17C408.642 231.17 406.532 235.326 404.149 235.627C404.149 235.627 408.09 231.593 407.764 231.062C407.764 231.062 403.484 231.242 401.354 232.57C403.254 231.242 405.443 230.475 407.704 230.344C406.692 229.311 405.421 228.62 404.049 228.356C404.049 228.356 406.306 227.086 408.709 230.316C408.709 230.316 412.037 230.316 412.496 230.675C412.496 230.675 410.5 227.086 408.31 225.743C408.31 225.743 411.438 226.031 413.382 230.919L416.743 231.88C416.743 231.88 414.34 227.035 412.47 225.65C412.47 225.65 415.618 226.468 417.569 232.203L420.711 233.639C420.711 233.639 418.94 229.296 417.163 227.265C417.163 227.265 419.932 228.701 421.589 234.091L423.586 235.333C423.586 235.333 422.255 232.182 421.782 231.313C421.31 230.445 421.496 230.244 421.496 230.244C422.937 231.778 423.953 233.714 424.432 235.835C424.432 235.835 428.412 238.692 428.592 238.448Z" fill="#BEBEC3"/>
<path d="M517.969 120.43C517.969 120.43 505.035 96.8938 492.008 110.288C492.008 110.288 489.08 111.651 489.492 115.054C489.492 115.054 490.604 114.293 491.669 116.841C492.05 117.747 492.53 118.6 493.1 119.382C493.864 120.441 494.931 121.197 496.135 121.535C496.135 121.535 502.559 126.115 513.748 121.535C513.748 121.535 516.997 121.83 517.489 121.363L513.582 118.65C513.582 118.65 511.851 121.815 509.082 122.339C509.082 122.339 513.589 118.872 513.023 118.219C512.903 118.083 510.893 116.877 510.893 116.877C510.893 116.877 507.851 122.368 503.571 123.036C503.571 123.036 509.455 119.676 510.141 116.418L506.999 114.824C506.999 114.824 504.05 120.803 499.184 121.758C499.184 121.758 505.222 118.018 506.287 114.523L502.998 113.374C502.998 113.374 500.016 119.116 495.969 119.906C495.969 119.906 502.532 114.824 502.226 113.166C502.226 113.166 499.151 112.305 498.232 112.506C498.232 112.506 496.002 116.59 493.613 116.812C493.613 116.812 497.666 112.922 497.36 112.376C497.36 112.376 493.073 112.412 490.91 113.668C492.848 112.408 495.058 111.715 497.32 111.659C496.336 110.592 495.085 109.858 493.719 109.548C493.719 109.548 496.016 108.35 498.379 111.659C498.379 111.659 501.707 111.781 502.153 112.147C502.153 112.147 500.269 108.558 498.112 107.079C498.112 107.079 501.228 107.467 503.032 112.42L506.36 113.496C506.36 113.496 504.103 108.572 502.266 107.122C502.266 107.122 505.395 108.048 507.178 113.841L510.274 115.398C510.274 115.398 508.63 110.998 506.946 108.938C506.946 108.938 509.668 110.467 511.179 115.908L513.129 117.214C513.129 117.214 511.878 114.02 511.439 113.137C510.999 112.254 511.186 112.061 511.186 112.061C512.581 113.642 513.542 115.61 513.961 117.745C513.961 117.745 517.776 120.667 517.969 120.43Z" fill="#BEBEC3"/>
<path d="M436.14 169.921C436.14 169.921 436.806 142.574 419.186 146.428C419.186 146.428 416.031 145.904 414.7 149.019C414.7 149.019 416.031 149.019 415.658 151.783C415.536 152.768 415.523 153.766 415.618 154.754C415.739 156.096 416.265 157.357 417.116 158.343C417.116 158.343 420.291 165.909 432.013 168.479C432.013 168.479 434.616 170.596 435.268 170.481L433.271 165.945C433.271 165.945 430.243 167.624 427.64 166.483C427.64 166.483 433.165 166.131 433.012 165.256C433.012 165.076 431.867 162.894 431.867 162.894C431.867 162.894 426.582 165.801 422.621 163.892C422.621 163.892 429.278 164.43 431.454 162.069L429.597 158.889C429.597 158.889 424.152 162.248 419.559 160.267C419.559 160.267 426.515 160.569 429.151 158.221L426.934 155.35C426.934 155.35 421.563 158.523 417.755 156.843C417.755 156.843 425.823 156.319 426.409 154.733C426.409 154.733 424.225 152.242 423.347 151.862C423.347 151.862 419.446 154.015 417.316 152.852C417.316 152.852 422.641 151.891 422.674 151.252C422.674 151.252 419.033 148.818 416.577 148.639C418.842 148.683 421.057 149.366 423 150.62C422.697 149.153 422.003 147.813 421.003 146.766C421.003 146.766 423.54 147.074 423.886 151.216C423.886 151.216 426.661 153.24 426.841 153.8C426.841 153.8 427.034 149.658 425.923 147.189C425.923 147.189 428.372 149.306 427.454 154.532L429.737 157.36C429.737 157.36 430.256 151.891 429.424 149.615C429.424 149.615 431.607 152.192 430.263 158.121L432.107 161.215C432.107 161.215 432.892 156.542 432.473 153.793C432.473 153.793 434.017 156.664 432.606 162.126L433.618 164.351C433.618 164.351 434.13 160.927 434.197 159.93C434.263 158.932 434.516 158.867 434.516 158.867C434.917 161.009 434.758 163.228 434.057 165.277C434.057 165.277 435.847 170.015 436.14 169.921Z" fill="#BEBEC3"/>
<path opacity="0.1" d="M465.269 517.415C475.169 517.415 483.195 515.953 483.195 514.149C483.195 512.346 475.169 510.884 465.269 510.884C455.369 510.884 447.343 512.346 447.343 514.149C447.343 515.953 455.369 517.415 465.269 517.415Z" fill="#BEBEC3"/>
<path opacity="0.1" d="M399.922 567C409.823 567 417.848 565.538 417.848 563.734C417.848 561.93 409.823 560.468 399.922 560.468C390.022 560.468 381.996 561.93 381.996 563.734C381.996 565.538 390.022 567 399.922 567Z" fill="#BEBEC3"/>
<path opacity="0.1" d="M61.9986 541.598C71.8988 541.598 79.9246 540.135 79.9246 538.332C79.9246 536.528 71.8988 535.066 61.9986 535.066C52.0984 535.066 44.0727 536.528 44.0727 538.332C44.0727 540.135 52.0984 541.598 61.9986 541.598Z" fill="#BEBEC3"/>
<path opacity="0.1" d="M535.888 563.734C545.788 563.734 553.814 562.272 553.814 560.468C553.814 558.664 545.788 557.202 535.888 557.202C525.988 557.202 517.962 558.664 517.962 560.468C517.962 562.272 525.988 563.734 535.888 563.734Z" fill="#BEBEC3"/>
<path d="M554.553 523.911C569.335 523.911 581.319 521.726 581.319 519.03C581.319 516.335 569.335 514.149 554.553 514.149C539.77 514.149 527.787 516.335 527.787 519.03C527.787 521.726 539.77 523.911 554.553 523.911Z" fill="#BEBEC3"/>
<path d="M565.649 511.041C566.871 509.971 567.761 508.523 568.199 506.893C568.531 505.242 567.879 503.268 566.421 502.665C564.784 501.99 563.033 503.21 561.702 504.445C560.371 505.68 558.86 507.094 557.122 506.835C558.014 505.962 558.681 504.854 559.059 503.62C559.437 502.387 559.513 501.068 559.279 499.794C559.203 499.266 558.996 498.769 558.68 498.358C557.768 497.31 556.124 497.762 555.032 498.588C551.571 501.215 550.605 506.283 550.586 510.848C550.239 509.204 550.532 507.488 550.526 505.823C550.519 504.158 550.086 502.234 548.762 501.359C547.949 500.87 547.03 500.622 546.099 500.641C544.541 500.583 542.804 500.748 541.746 501.976C540.414 503.498 540.767 506.06 541.912 507.718C543.057 509.376 544.808 510.446 546.419 511.609C547.708 512.439 548.809 513.569 549.64 514.918C549.735 515.105 549.813 515.302 549.873 515.506H559.632C561.816 514.32 563.841 512.818 565.649 511.041Z" fill="#BEBEC3"/>
<path d="M49.9637 523.15C49.9637 523.15 60.1814 522.813 63.2767 520.444C66.3719 518.076 79.006 515.255 79.7715 519.052C80.537 522.849 95.1347 537.923 83.5923 538.023C72.0499 538.124 56.7733 536.085 53.698 534.061C50.6226 532.037 49.9637 523.15 49.9637 523.15Z" fill="#A8A8A8"/>
<path opacity="0.2" d="M83.7853 536.702C72.243 536.803 56.9663 534.764 53.891 532.74C51.5479 531.204 50.616 525.684 50.3031 523.136H49.9637C49.9637 523.136 50.6293 532.029 53.6846 534.046C56.74 536.063 72.0366 538.109 83.579 538.009C86.9072 538.009 88.0588 536.702 87.9989 534.807C87.5329 535.963 86.2616 536.681 83.7853 536.702Z" fill="black"/>
<path d="M315.319 396.64C313.399 396.64 311.82 396.576 310.583 396.448C309.346 396.32 308.023 396.064 306.615 395.68C305.079 395.253 303.842 394.656 302.903 393.888C301.964 393.077 301.175 391.947 300.535 390.496C299.895 389.088 299.575 387.381 299.575 385.376V376.224C299.575 374.176 299.895 372.384 300.535 370.848C301.175 369.312 302.007 368.117 303.031 367.264C303.927 366.539 305.1 365.941 306.551 365.472C308.044 364.96 309.495 364.64 310.903 364.512C312.524 364.427 313.996 364.384 315.319 364.384C317.282 364.384 318.839 364.448 319.991 364.576C321.186 364.661 322.487 364.917 323.895 365.344C325.431 365.813 326.668 366.453 327.607 367.264C328.588 368.075 329.42 369.227 330.103 370.72C330.743 372.256 331.063 374.091 331.063 376.224V385.376C331.063 387.296 330.743 388.981 330.103 390.432C329.506 391.883 328.716 393.013 327.735 393.824C326.882 394.549 325.708 395.147 324.215 395.616C322.764 396.043 321.335 396.32 319.927 396.448C318.647 396.576 317.111 396.64 315.319 396.64ZM315.319 390.816C317.068 390.816 318.391 390.688 319.287 390.432C320.183 390.133 320.802 389.685 321.143 389.088C321.527 388.491 321.719 387.616 321.719 386.464V374.752C321.719 373.045 321.271 371.851 320.375 371.168C319.479 370.485 317.794 370.144 315.319 370.144C312.844 370.144 311.159 370.485 310.263 371.168C309.367 371.851 308.919 373.045 308.919 374.752V386.464C308.919 387.616 309.09 388.491 309.431 389.088C309.815 389.685 310.455 390.133 311.351 390.432C312.247 390.688 313.57 390.816 315.319 390.816ZM353.194 396.64C351.274 396.64 349.695 396.576 348.458 396.448C347.221 396.32 345.898 396.064 344.49 395.68C342.954 395.253 341.717 394.656 340.778 393.888C339.839 393.077 339.05 391.947 338.41 390.496C337.77 389.088 337.45 387.381 337.45 385.376V376.224C337.45 374.176 337.77 372.384 338.41 370.848C339.05 369.312 339.882 368.117 340.906 367.264C341.802 366.539 342.975 365.941 344.426 365.472C345.919 364.96 347.37 364.64 348.778 364.512C350.399 364.427 351.871 364.384 353.194 364.384C355.157 364.384 356.714 364.448 357.866 364.576C359.061 364.661 360.362 364.917 361.77 365.344C363.306 365.813 364.543 366.453 365.482 367.264C366.463 368.075 367.295 369.227 367.978 370.72C368.618 372.256 368.938 374.091 368.938 376.224V385.376C368.938 387.296 368.618 388.981 367.978 390.432C367.381 391.883 366.591 393.013 365.61 393.824C364.757 394.549 363.583 395.147 362.09 395.616C360.639 396.043 359.21 396.32 357.802 396.448C356.522 396.576 354.986 396.64 353.194 396.64ZM353.194 390.816C354.943 390.816 356.266 390.688 357.162 390.432C358.058 390.133 358.677 389.685 359.018 389.088C359.402 388.491 359.594 387.616 359.594 386.464V374.752C359.594 373.045 359.146 371.851 358.25 371.168C357.354 370.485 355.669 370.144 353.194 370.144C350.719 370.144 349.034 370.485 348.138 371.168C347.242 371.851 346.794 373.045 346.794 374.752V386.464C346.794 387.616 346.965 388.491 347.306 389.088C347.69 389.685 348.33 390.133 349.226 390.432C350.122 390.688 351.445 390.816 353.194 390.816ZM376.221 365.024H385.053V368.096C385.608 366.731 386.696 365.771 388.317 365.216C389.938 364.661 392.349 364.384 395.549 364.384C398.237 364.384 400.392 364.597 402.013 365.024C403.677 365.451 404.936 366.133 405.789 367.072C406.6 368.011 407.154 369.056 407.453 370.208C407.752 371.317 407.901 372.853 407.901 374.816V384.992C407.901 388.064 407.453 390.432 406.557 392.096C405.661 393.76 404.274 394.933 402.397 395.616C400.562 396.299 398.045 396.64 394.845 396.64C391.773 396.64 389.554 396.384 388.189 395.872C386.824 395.36 385.949 394.357 385.565 392.864V409.312H376.221V365.024ZM391.965 390.816C393.8 390.816 395.186 390.688 396.125 390.432C397.064 390.176 397.704 389.728 398.045 389.088C398.386 388.448 398.557 387.488 398.557 386.208V374.752C398.557 373.344 398.408 372.341 398.109 371.744C397.81 371.104 397.213 370.677 396.317 370.464C395.421 370.251 393.949 370.144 391.901 370.144C390.152 370.144 388.808 370.293 387.869 370.592C386.973 370.891 386.354 371.36 386.013 372C385.714 372.64 385.565 373.557 385.565 374.752V386.208C385.565 387.488 385.714 388.448 386.013 389.088C386.354 389.728 386.973 390.176 387.869 390.432C388.765 390.688 390.13 390.816 391.965 390.816ZM426.805 396.64C423.477 396.64 419.402 396.32 414.581 395.68V389.472C420.512 390.368 424.629 390.816 426.933 390.816C428.896 390.816 430.346 390.624 431.285 390.24C432.224 389.856 432.693 389.152 432.693 388.128V386.208C432.693 385.141 432.394 384.395 431.797 383.968C431.2 383.499 430.026 383.264 428.277 383.264H424.245C420.96 383.264 418.421 382.624 416.629 381.344C414.837 380.021 413.941 378.101 413.941 375.584V371.808C413.941 369.12 415.221 367.221 417.781 366.112C420.341 364.96 424.202 364.384 429.365 364.384C431.413 364.384 435.082 364.576 440.373 364.96V370.912C433.717 370.4 429.962 370.144 429.109 370.144C426.592 370.144 424.949 370.315 424.181 370.656C423.498 371.04 423.157 371.744 423.157 372.768V374.432C423.157 374.987 423.434 375.477 423.989 375.904C424.544 376.288 425.354 376.48 426.421 376.48H430.517C438.112 376.48 441.909 378.955 441.909 383.904V387.808C441.909 389.301 441.632 390.603 441.077 391.712C440.522 392.821 439.797 393.696 438.901 394.336C438.048 394.933 436.938 395.403 435.573 395.744C434.25 396.085 432.864 396.32 431.413 396.448C430.09 396.576 428.554 396.64 426.805 396.64ZM448.59 354.464H459.79L457.038 383.968H451.342L448.59 354.464ZM449.23 387.168H459.214V396H449.23V387.168Z" fill="#79798C"/>
</g>
<defs>
<linearGradient id="paint0_linear" x1="148.433" y1="311.102" x2="356.202" y2="311.102" gradientUnits="userSpaceOnUse">
<stop stop-color="#808080" stop-opacity="0.25"/>
<stop offset="0.54" stop-color="#808080" stop-opacity="0.12"/>
<stop offset="1" stop-color="#808080" stop-opacity="0.1"/>
</linearGradient>
<clipPath id="clip0">
<rect width="672" height="567" fill="white"/>
</clipPath>
</defs>
</svg>
